<svg width="2220" height="444" viewBox="0 0 2220 444" fill="none" xmlns="http://www.w3.org/2000/svg">
<rect width="2220" height="444" rx="10" fill="#5F6062"/>
<path d="M0 141H8C9.10457 141 10 141.895 10 143V300C10 301.105 9.10457 302 8 302H0V141Z" fill="#A8A9AC"/>
<path d="M2210 143C2210 141.895 2210.9 141 2212 141H2220V302H2212C2210.9 302 2210 301.105 2210 300V143Z" fill="#A8A9AC"/>
<ellipse cx="231.315" cy="219.77" rx="13.9282" ry="14.1341" fill="#EFEFEF"/>
<ellipse cx="817.734" cy="219.525" rx="13.9996" ry="14.1341" fill="#EFEFEF"/>
<rect x="885.033" y="197.951" width="451.115" height="49.0485" rx="20" stroke="#EFEFEF" stroke-width="12"/>
<ellipse cx="1405.96" cy="219.525" rx="13.9996" ry="14.1341" fill="#EFEFEF"/>
<ellipse cx="1992.44" cy="219.77" rx="13.9996" ry="14.1341" fill="#EFEFEF"/>
<path d="M2220 434C2220 439.523 2215.52 444 2210 444H2061.21V360H2220V434Z" fill="#454547"/>
<circle cx="2067.5" cy="363.5" r="12.5" transform="rotate(-180 2067.5 363.5)" fill="#EFEFEF"/>
<rect x="2073" y="444" width="12" height="84" transform="rotate(-180 2073 444)" fill="#EFEFEF"/>
<rect x="2149.1" y="444" width="5.99191" height="84" transform="rotate(-180 2149.1 444)" fill="#C4C4C4"/>
<rect x="1935.01" y="444" width="466.37" height="84" transform="rotate(-180 1935.01 444)" fill="#454547"/>
<circle cx="1930.5" cy="363.5" r="12.5" transform="rotate(-180 1930.5 363.5)" fill="#EFEFEF"/>
<rect x="1936" y="444" width="12" height="84" transform="rotate(-180 1936 444)" fill="#EFEFEF"/>
<rect x="1854.12" y="444" width="5.99191" height="84" transform="rotate(-180 1854.12 444)" fill="#EFEFEF" fill-opacity="0.1"/>
<rect x="1779.22" y="444" width="5.9919" height="84" transform="rotate(-180 1779.22 444)" fill="#EFEFEF" fill-opacity="0.1"/>
<circle cx="1475.5" cy="363.5" r="12.5" transform="rotate(-180 1475.5 363.5)" fill="#EFEFEF"/>
<rect x="1481" y="444" width="12" height="84" transform="rotate(-180 1481 444)" fill="#EFEFEF"/>
<rect x="1630.42" y="444" width="5.99194" height="84" transform="rotate(-180 1630.42 444)" fill="#EFEFEF" fill-opacity="0.1"/>
<rect x="1555.52" y="444" width="5.99191" height="84" transform="rotate(-180 1555.52 444)" fill="#EFEFEF" fill-opacity="0.1"/>
<circle cx="1702.5" cy="363.5" r="12.5" transform="rotate(-180 1702.5 363.5)" fill="#EFEFEF"/>
<rect x="1708" y="444" width="12" height="84" transform="rotate(-180 1708 444)" fill="#EFEFEF"/>
<rect x="1343.01" y="444" width="466.37" height="84" transform="rotate(-180 1343.01 444)" fill="#454547"/>
<circle cx="1338.5" cy="363.5" r="12.5" transform="rotate(-180 1338.5 363.5)" fill="#EFEFEF"/>
<rect x="1344" y="444" width="12" height="84" transform="rotate(-180 1344 444)" fill="#EFEFEF"/>
<rect x="1262.12" y="444" width="5.99191" height="84" transform="rotate(-180 1262.12 444)" fill="#EFEFEF" fill-opacity="0.1"/>
<rect x="1187.22" y="444" width="5.9919" height="84" transform="rotate(-180 1187.22 444)" fill="#EFEFEF" fill-opacity="0.1"/>
<circle cx="883.5" cy="363.5" r="12.5" transform="rotate(-180 883.5 363.5)" fill="#EFEFEF"/>
<rect x="889" y="444" width="12" height="84" transform="rotate(-180 889 444)" fill="#EFEFEF"/>
<rect x="1038.42" y="444" width="5.99194" height="84" transform="rotate(-180 1038.42 444)" fill="#EFEFEF" fill-opacity="0.1"/>
<rect x="963.521" y="444" width="5.99191" height="84" transform="rotate(-180 963.521 444)" fill="#EFEFEF" fill-opacity="0.1"/>
<circle cx="1110.5" cy="363.5" r="12.5" transform="rotate(-180 1110.5 363.5)" fill="#EFEFEF"/>
<rect x="1116" y="444" width="12" height="84" transform="rotate(-180 1116 444)" fill="#EFEFEF"/>
<rect x="751.01" y="444" width="466.37" height="84" transform="rotate(-180 751.01 444)" fill="#454547"/>
<circle cx="746.5" cy="363.5" r="12.5" transform="rotate(-180 746.5 363.5)" fill="#EFEFEF"/>
<rect x="752" y="444" width="12" height="84" transform="rotate(-180 752 444)" fill="#EFEFEF"/>
<rect x="670.119" y="444" width="5.99191" height="84" transform="rotate(-180 670.119 444)" fill="#EFEFEF" fill-opacity="0.1"/>
<rect x="595.221" y="444" width="5.9919" height="84" transform="rotate(-180 595.221 444)" fill="#EFEFEF" fill-opacity="0.1"/>
<circle cx="291.5" cy="363.5" r="12.5" transform="rotate(-180 291.5 363.5)" fill="#EFEFEF"/>
<rect x="297" y="444" width="12" height="84" transform="rotate(-180 297 444)" fill="#EFEFEF"/>
<rect x="446.422" y="444" width="5.99194" height="84" transform="rotate(-180 446.422 444)" fill="#EFEFEF" fill-opacity="0.1"/>
<rect x="371.521" y="444" width="5.99191" height="84" transform="rotate(-180 371.521 444)" fill="#EFEFEF" fill-opacity="0.1"/>
<circle cx="518.5" cy="363.5" r="12.5" transform="rotate(-180 518.5 363.5)" fill="#EFEFEF"/>
<rect x="524" y="444" width="12" height="84" transform="rotate(-180 524 444)" fill="#EFEFEF"/>
<path d="M158.787 444H10.0017C4.47884 444 0.00169373 439.523 0.00169373 434V360H158.787V444Z" fill="#454547"/>
<circle cx="153.277" cy="363.5" r="12.5" transform="rotate(-180 153.277 363.5)" fill="#EFEFEF"/>
<rect x="158.777" y="444" width="12" height="84" transform="rotate(-180 158.777 444)" fill="#EFEFEF"/>
<rect x="75.8984" y="444" width="5.9919" height="84" transform="rotate(-180 75.8984 444)" fill="#C4C4C4"/>
<path d="M0 10C0 4.47715 4.47715 0 10 0H158.785V84H0V10Z" fill="#454547"/>
<circle cx="152.5" cy="80.5" r="12.5" fill="#EFEFEF"/>
<rect x="147" width="12" height="84" fill="#EFEFEF"/>
<rect x="70.9043" width="5.99191" height="84" fill="#C4C4C4"/>
<rect x="284.99" width="466.37" height="84" fill="#454547"/>
<circle cx="289.5" cy="80.5" r="12.5" fill="#EFEFEF"/>
<rect x="284" width="12" height="84" fill="#EFEFEF"/>
<rect x="365.881" width="5.99191" height="84" fill="#EFEFEF" fill-opacity="0.1"/>
<rect x="440.779" width="5.9919" height="84" fill="#EFEFEF" fill-opacity="0.1"/>
<circle cx="744.5" cy="80.5" r="12.5" fill="#EFEFEF"/>
<rect x="739" width="12" height="84" fill="#EFEFEF"/>
<rect x="589.578" width="5.99194" height="84" fill="#EFEFEF" fill-opacity="0.1"/>
<rect x="664.479" width="5.99191" height="84" fill="#EFEFEF" fill-opacity="0.1"/>
<circle cx="517.5" cy="80.5" r="12.5" fill="#EFEFEF"/>
<rect x="512" width="12" height="84" fill="#EFEFEF"/>
<rect x="876.99" width="466.37" height="84" fill="#454547"/>
<circle cx="881.5" cy="80.5" r="12.5" fill="#EFEFEF"/>
<rect x="876" width="12" height="84" fill="#EFEFEF"/>
<rect x="957.881" width="5.99191" height="84" fill="#EFEFEF" fill-opacity="0.1"/>
<rect x="1032.78" width="5.9919" height="84" fill="#EFEFEF" fill-opacity="0.1"/>
<circle cx="1336.5" cy="80.5" r="12.5" fill="#EFEFEF"/>
<rect x="1331" width="12" height="84" fill="#EFEFEF"/>
<rect x="1181.58" width="5.99194" height="84" fill="#EFEFEF" fill-opacity="0.1"/>
<rect x="1256.48" width="5.99191" height="84" fill="#EFEFEF" fill-opacity="0.1"/>
<circle cx="1109.5" cy="80.5" r="12.5" fill="#EFEFEF"/>
<rect x="1104" width="12" height="84" fill="#EFEFEF"/>
<rect x="1468.99" width="466.37" height="84" fill="#454547"/>
<circle cx="1473.5" cy="80.5" r="12.5" fill="#EFEFEF"/>
<rect x="1468" width="12" height="84" fill="#EFEFEF"/>
<rect x="1549.88" width="5.99191" height="84" fill="#EFEFEF" fill-opacity="0.1"/>
<rect x="1624.78" width="5.9919" height="84" fill="#EFEFEF" fill-opacity="0.1"/>
<circle cx="1928.5" cy="80.5" r="12.5" fill="#EFEFEF"/>
<rect x="1923" width="12" height="84" fill="#EFEFEF"/>
<rect x="1773.58" width="5.99194" height="84" fill="#EFEFEF" fill-opacity="0.1"/>
<rect x="1848.48" width="5.99191" height="84" fill="#EFEFEF" fill-opacity="0.1"/>
<circle cx="1701.5" cy="80.5" r="12.5" fill="#EFEFEF"/>
<rect x="1696" width="12" height="84" fill="#EFEFEF"/>
<path d="M2060.99 0H2209.78C2215.3 0 2219.78 4.47715 2219.78 10V84H2060.99V0Z" fill="#454547"/>
<circle cx="2066.5" cy="80.5" r="12.5" fill="#EFEFEF"/>
<rect x="2061" width="12" height="84" fill="#EFEFEF"/>
<rect x="2143.88" width="5.9919" height="84" fill="#C4C4C4"/>
</svg>
